/* XPM */
static char *_beedacd57704664b6eee2b3ee921f0d3TQ9g5TJ8PYpS9bD[] = {
/* columns rows colors chars-per-pixel */
"40 34 204 2 ",
"   c None",
".  c #010204",
"X  c #0B0200",
"o  c #010900",
"O  c #00030C",
"+  c #01090E",
"@  c #130200",
"#  c #1C0000",
"$  c #000312",
"%  c #000A13",
"&  c #01021B",
"*  c #050619",
"=  c #000326",
"-  c #00032B",
";  c #1D1222",
":  c #030533",
">  c #0D1437",
",  c #18183E",
"<  c #1C2232",
"1  c #0F2638",
"2  c #78552C",
"3  c #7B5234",
"4  c #715432",
"5  c #6D5435",
"6  c #7A662A",
"7  c #77693B",
"8  c #000042",
"9  c #170E46",
"0  c #141245",
"q  c #0A0C5D",
"w  c #160D5B",
"e  c #160B55",
"r  c #00165B",
"t  c #1A1155",
"y  c #08184C",
"u  c #05086A",
"i  c #140D63",
"p  c #130C6D",
"a  c #1A0D67",
"s  c #0C1260",
"d  c #06136B",
"f  c #11126F",
"g  c #181467",
"h  c #080D76",
"j  c #11097A",
"k  c #130B72",
"l  c #041A73",
"z  c #141A70",
"x  c #79584A",
"c  c #6C5652",
"v  c #726449",
"b  c #5D556C",
"n  c #845F19",
"m  c #9A5328",
"M  c #8E5235",
"N  c #986337",
"B  c #B97E2E",
"V  c #AE7C33",
"C  c #BF7E3A",
"Z  c #C17838",
"A  c #C47C2A",
"S  c #985C40",
"D  c #825F59",
"F  c #905A4B",
"G  c #8D6242",
"H  c #986748",
"J  c #8C655B",
"K  c #A07F4C",
"L  c #AA7E5B",
"P  c #85706D",
"I  c #846467",
"U  c #AB823C",
"Y  c #A78344",
"T  c #A6884A",
"R  c #B18346",
"E  c #AB8754",
"W  c #EFB87F",
"Q  c #FFCB78",
"!  c #080A89",
"~  c #110A88",
"^  c #001383",
"/  c #0D0A9A",
"(  c #0E0890",
")  c #291F8F",
"_  c #271E95",
"`  c #1B2B9C",
"'  c #262489",
"]  c #0507AA",
"[  c #192BBF",
"{  c #0E35AA",
"}  c #2F2FAB",
"|  c #2129B0",
" . c #2335B3",
".. c #233AA4",
"X. c #727FB6",
"o. c #291FC5",
"O. c #1B28C7",
"+. c #1A34C3",
"@. c #1D27D3",
"#. c #1E26D7",
"$. c #272CC6",
"%. c #3B2FC3",
"&. c #2333C8",
"*. c #2229D8",
"=. c #3428D2",
"-. c #241FF5",
";. c #1C24EA",
":. c #2327EA",
">. c #2323F3",
",. c #3F4FE3",
"<. c #5162CE",
"1. c #637BDD",
"2. c #595EFF",
"3. c #4954EE",
"4. c #645EFC",
"5. c #6A5BFF",
"6. c #6457FF",
"7. c #5E62F8",
"8. c #6A63E8",
"9. c #6862FF",
"0. c #6364FA",
"q. c #837FBA",
"w. c #7D8A9A",
"e. c #6C86AC",
"r. c #768BA7",
"t. c #6D90AC",
"y. c #6C8BBC",
"u. c #6987BD",
"i. c #7987BA",
"p. c #6A92B9",
"a. c #7897B6",
"s. c #7DA0BE",
"d. c #6C8CC4",
"f. c #6A87C8",
"g. c #7387C2",
"h. c #778BCA",
"j. c #6F91CE",
"k. c #7995C4",
"l. c #6984DE",
"z. c #7C98D7",
"x. c #7B8CD1",
"c. c #7BA2C9",
"v. c #6D85F1",
"b. c #8288A8",
"n. c #8495A9",
"m. c #8B9CB2",
"M. c #AAB7A7",
"N. c #B1B9AC",
"B. c #DFB88F",
"V. c #EBBA86",
"C. c #E3B58C",
"Z. c #F3B987",
"A. c #E5BA99",
"S. c #E6AF86",
"D. c #ECC48F",
"F. c #FFCB8F",
"G. c #FDC687",
"H. c #FFCD9B",
"J. c #FAC398",
"K. c #FFD495",
"L. c #F2D498",
"P. c #EECA98",
"I. c #EFCEA3",
"U. c #EFD0AC",
"Y. c #828ACA",
"T. c #869CCC",
"R. c #8398D1",
"E. c #8BA1D0",
"W. c #92A2C9",
"Q. c #B3BCCD",
"!. c #97B9FF",
"~. c #ACBEE6",
"^. c #8FC4D2",
"/. c #A0CBD1",
"(. c #96CFED",
"). c #92C2FF",
"_. c #96C8FC",
"`. c #91D0FF",
"'. c #89C5FB",
"]. c #BAD7EB",
"[. c #ABDBFF",
"{. c #A7D5FF",
"}. c #BCDCF5",
"|. c #B4D6FC",
" X c #B3DCFF",
".X c #BCDCFE",
"XX c #BCD7FC",
"oX c #B9E3EF",
"OX c #AEE0F9",
"+X c #B3E2FD",
"@X c #BBE2FF",
"#X c #B7E6F0",
"$X c #CADBD9",
"%X c #DBD2CD",
"&X c #C3DDEE",
"*X c #C7DAE4",
"=X c #C5DEF4",
"-X c #C3DBFF",
";X c #C2D7FF",
":X c #E0DBE1",
">X c #CEE0EA",
",X c #C6E3F8",
"<X c #D4E3F9",
"1X c #D3E0E8",
/* pixels */
"                                                                                ",
"                                                                                ",
"                                                                                ",
"                                    O O O + . . O                               ",
"                                    + % % % % O O                               ",
"                                  . &X}.].,X&X*X.                               ",
"                                  * XX.X@X@X|.=X.                               ",
"                          o X X < r.h.f.f.d.y.t..             O O .             ",
"                          X X . > i.l.v.1.l.j.e.$             O O +             ",
"                        @ I P :X<X;X .[  .^ l.f.&           + *X1XO             ",
"                        o F J %X&X-XO.;.@.3.,.<.-           1 ,X*XO             ",
"                    # # H S H U.>X.XO.:.*.0.*.| 8       . $ -XXX<XO             ",
"                  X G N V.R V E $X.X-X&.@.7.0.7.} f > & W.E..XT.n.O             ",
"                  X H N W U B Y $X|..X&.@.2.9.4.$.( q : k.z..Xk.m.%             ",
"                # D # # C.Z.W L *X@X.X[ :.>.6.5.o./ f g..X Xc.= &               ",
"                # J @ # A.S.Z.L $X X.X+.;.>.5.6.=./ h d. X+Xa.& $               ",
"            o o 3 I.@ @ A.J.K.K N..X.X+.>.-.4.5.o./ l d.OX#X%                   ",
"            o x 2 P.# # A.H.G.T M..X|.+.#.:.4.4.%.~ d u.+XoXO                   ",
"            o x 2 I.B.A.C.H.Q Y M..X).+.+.] 9.8.u q g g.p.t.$                   ",
"            o v 5 I.D.V.V.G.Q U N.[.).{  .! 8.8.a t 0 X.d.y.&                   ",
"              X X 7 D.F.F.C A R $X+X_.l d f k p i e 0 : z.z.i.& %               ",
"              o . v L.K.G.Z Z E *X[.!.d z q i i a t , & T.R.i.= $               ",
"                  X 6 n J.m m 4 /.`...! h ' i w 9 = $   . $ XXa.r.O             ",
"                  X 7 6 M M G c ^.`.` ( ~ ) p e 0 $ *   @ . }.p.r.%             ",
"                    X X 3 x c Q.(.'.d j ~ _ k e &       X . s.@X=X%             ",
"                    . @ x c b ~._.{.s p j ) a t $       X O s. X].O             ",
"                        X ; , y r r s s i w t 9         . + a..X&XO             ",
"                          * - i.h.x.g.Y.Y.q.: &             & e.w.%             ",
"                          O & b.i.e.k.y.i.i.$ O             & b.w.O             ",
"                              $ & a..X|.-X=                   O O O             ",
"                              . $ n.].=X,X%                   . . .             ",
"                                  O O O O                                       ",
"                                    . . .                                       ",
"                                                                                "
};
