/* XPM */
static char *_71bb920a3d84745d44554754d46e374j3gilqSmev6TE3Iv[] = {
/* columns rows colors chars-per-pixel */
"30 30 20 1 ",
"  c None",
". c black",
"X c #0E151C",
"o c #464646",
"O c #E3AC17",
"+ c #FFC20E",
"@ c #2F3699",
"# c #3644A1",
"$ c #3D50A8",
"% c #5876BE",
"& c #5B7BC1",
"* c #5C7DC1",
"= c #4D6DF3",
"- c #00B7EF",
"; c #678CCB",
": c #6890CC",
"> c #6F99D2",
", c #6F9BD2",
"< c #709AD1",
"1 c white",
/* pixels */
"@@#@<<<@<@<,<<<@<<<<<%@@@#@<<<",
"<%@@<<@#@<<<<<<,<<<<<@<<%<@<<@",
"@<..%*@@#<<<<<,<<%<<#@@@@@%%*<",
"@@.@.#@;%@@,@<<<,%*<@@@.....X@",
"@<.@.@@<@%;*<@<@,@#@%%. 1====.",
"@@.@..@<@@@,,;:@@@<@<<.11==oo.",
"<@.=@.@@@@@@@<,<,,@@@@.11=ooo.",
"@@.=-@.@@@<<@@@@....@@.===ooo.",
"<@.=-@..@@@.....OOO......=oo..",
"<@.=--@@.@.OOOOO++OOOOOOO.=o..",
"@@X==-+O...O++++++++++++O.=o..",
"<@.==--+OOOO++++++++++++OOO..@",
"@%.X=--+++++++OOOOOOO++O....@@",
"<@%.=--++++++++O+++O+++O.@@@<@",
"<<%.==--+++++++O++O++++O....<@",
"<<@.==--+++++++O+O++++++OOO.@@",
"@#@.==--+++++++OO+++OOOOO..@@<",
"@<@.==--+OOO+++++++OO....X@@@@",
"@%%.==-++..OOOO+++OO..@#@@@<@@",
"@@..==-+.@....OOOOO.@@##@&@<,@",
"<@.==--+.@<#@@....X@@<@&<@@@<@",
"@@.==--@.#<@<@<@#<@@@@&,@<<%,#",
"<@.==@@.X#@%@@###@%@@,<%<<<<,@",
"<@.=@..<@%<@@<<@%@@@<@%<<<<<,#",
"@@.=..@@%@<<@,@&@@<@%@$@<<<<%@",
"<@.@.@@<@@<<<@%<@<<<@;@<<<<,%@",
"@@.@.@<@<<<<<<%@<<<<<,#%,,<@<@",
"<@..@<<@#<<<<<@,@<<<@,@@@,<&%<",
"@@<<<@@%@<@<<#%<@@<<,@<%%,<@<@",
"@@@@@@@@@%%*@@@@%%*@@@@@@#@%%@"
};
