/* XPM */
static char *f2b096978de3402dd8ccbd2406b9a261vSxUbm5VANptC1gB[] = {
/* columns rows colors chars-per-pixel */
"30 30 81 1 ",
"  c #1F1F23",
". c #1E1D24",
"X c #1F1E25",
"o c #1E1F25",
"O c #1E1D26",
"+ c #1F1E28",
"@ c #1E1F28",
"# c #211E23",
"$ c #211D25",
"% c #211F27",
"& c #221F27",
"* c #211D28",
"= c #211F29",
"- c #1F2125",
"; c #1F2027",
": c #1F2029",
"> c #30333B",
", c #33313F",
"< c #31343E",
"1 c #313440",
"2 c #3C434E",
"3 c #3F4352",
"4 c #40434E",
"5 c #404453",
"6 c #494C52",
"7 c #4A4D55",
"8 c #4C4D56",
"9 c #505158",
"0 c #5F6B79",
"q c #5E697A",
"w c #5F6A7B",
"e c #626675",
"r c #626977",
"t c #696E76",
"y c #61677A",
"u c #616878",
"i c #626979",
"p c #60687A",
"a c #61697B",
"s c #62697B",
"d c #626B7A",
"f c #656B7B",
"g c #636C7B",
"h c #61697D",
"j c #606B7C",
"k c #626A7C",
"l c #61697F",
"z c #626A7E",
"x c #64697E",
"c c #646D7C",
"v c #686C7A",
"b c #67707D",
"n c #67707F",
"m c #6B7178",
"M c #6D7078",
"N c #74737A",
"B c #D5A054",
"V c #77808D",
"C c #78818E",
"Z c #79838F",
"A c #798291",
"S c #788192",
"D c #7A8395",
"F c #788096",
"G c #798397",
"H c #7A8397",
"J c #7C8297",
"K c #798495",
"L c #7E8796",
"P c #7F8897",
"I c #7A8299",
"U c #9BA3AE",
"Y c #9BA4B1",
"T c #AEB1BB",
"R c #A8B2BC",
"E c #A9B3BD",
"W c #ADB2BE",
"Q c #B5BDC6",
"! c #BBBBC7",
"~ c #B9BCC7",
"^ c #B8BDC7",
/* pixels */
"BBBBBBBBBBBBBBBBBBBBBBBBBBBBBB",
"BBBBBBBBBBBBBBBBBBBBBBBBBBBBBB",
"BBBBBBBBBBBBBBBBBBBBBBBBBBBBBB",
"BBBBBBBBBBBBBBBBBBBBBBBBBBBBBB",
"BBBBBBBBBBBBBBBBBBBBBBBBBBBBBB",
"BBBBBBBBBBBBBBBBBBBBBBBBBBBBBB",
"BBBBBBBBBBBBBBBBBBBBBBBBBBBBBB",
"BBBBBBBBBYWT!~~!QEEEUBBBBBBBBB",
"BBBBBBBBBllaJDDJDIIDlBBBBBBBBB",
"BBBBBBBBBllaDKDDDDDAaBBBBBBBBB",
"BBBBBZllallaDDDDDDDAaaaaABBBBB",
"BBBBBZalqbbcPPPPPPPLgaqaVBBBBB",
"BBBBxxaa4#**********X3qqraBBBB",
"BBBBllgf2@#XXXXXXXXX@5llvaBBBB",
"BBBBa,X@@X XXXXXXXXXX$$*1aBBBB",
"BBBBy>XXXXXXXXXXXXXXX;$:<eBBBB",
"BBBB*XXX#XXXXXXXXXXXX$$$X@BBBB",
"BBBB@XXX#XXXXXXXXXXXX$$$$XBBBB",
"BBBBB9X$ XXX XXXXXXXX$$$8BBBBB",
"BBBBB6@XXXX  XXXXXXXX$;*7BBBBB",
"BBBBBBBBM;;XXXXXXXXXXNBBBBBBBB",
"BBBBBBBBmX;XXXXXXXXX@tBBBBBBBB",
"BBBBBBBBBBBBBBBBBBBBBBBBBBBBBB",
"BBBBBBBBBBBBBBBBBBBBBBBBBBBBBB",
"BBBBBBBBBBBBBBBBBBBBBBBBBBBBBB",
"BBBBBBBBBBBBBBBBBBBBBBBBBBBBBB",
"BBBBBBBBBBBBBBBBBBBBBBBBBBBBBB",
"BBBBBBBBBBBBBBBBBBBBBBBBBBBBBB",
"BBBBBBBBBBBBBBBBBBBBBBBBBBBBBB",
"BBBBBBBBBBBBBBBBBBBBBBBBBBBBBB"
};
