/* XPM */
static char *_0f930fcf5054f5df82c4a52a10db666vTh1AsOF6wpqJ22v[] = {
/* columns rows colors chars-per-pixel */
"30 30 46 1 ",
"  c #1F1F23",
". c #1E1D24",
"X c #1F1E25",
"o c #1E1F25",
"O c #1F1E28",
"+ c #1E1F28",
"@ c #211E23",
"# c #211F27",
"$ c #211D28",
"% c #1F2027",
"& c #30333B",
"* c #31343E",
"= c #3F4352",
"- c #40434E",
"; c #494C52",
": c #4A4D55",
"> c #6A6A6A",
", c #626675",
"< c #626977",
"1 c #696E76",
"2 c #61677A",
"3 c #616878",
"4 c #626979",
"5 c #636C7B",
"6 c #61697F",
"7 c #64697E",
"8 c #67707D",
"9 c #6B7178",
"0 c #6D7078",
"q c #74737A",
"w c gray50",
"e c #D5A054",
"r c #77808D",
"t c #78818E",
"y c #798291",
"u c #798397",
"i c #7A8397",
"p c #7C8297",
"a c #7F8897",
"s c #7A8299",
"d c #9BA3AE",
"f c #9BA4B1",
"g c #A8B2BC",
"h c #B5BDC6",
"j c #BBBBC7",
"k c #B8BDC7",
/* pixels */
"eeeeeeeeeeeeeeeeeeeeeeeeeeeeee",
"eeeeeeeeeeeeeeeeeeeeeeeeeeeeee",
"eeeeeeeeeeeeeeeeeeeeeeeeeeeeee",
"eeeeeeeeeeeeeeeeeeeeeeeeeeeeee",
"eeeeeeeeeeeeeeeeeeeeeeeeeeeeee",
"eeeeeeeeeeeeeeeeeeeeeeeeeeeeee",
"eeeeeeeeeeeeeeeeeeeeeeeeeeeeee",
"eeeeeeeeefw>jkw>hgw>deeeeeeeee",
"eeeeeeeee6w>puw>usw>6eeeeeeeee",
"eeeeeeeeeww>www>www>weeeeeeeee",
"eeeeeww>>>w>>>w>>>w>>>w>yeeeee",
"eeeeetw>>8w>aaw>aaw>53w>reeeee",
"eeee77w>-@w>$$w>$$w>X=w><3eeee",
"eeeewww>www>www>www>www>wweeee",
"eeee>>w>>>w>>>w>>>w>>>w>>>eeee",
"eeee2&w>XXw>XXw>XXw>X%w>*,eeee",
"eeee$Xw>@Xw>XXw>XXw>X#w>XOeeee",
"eeeewww>www>www>www>www>wweeee",
"eeeee>w>>>w>>>w>>>w>>>w>>eeeee",
"eeeee;w>XXw> Xw>XXw>X#w>:eeeee",
"eeeeeeee0%w>XXw>XXw>Xqeeeeeeee",
"eeeeeeee9Xw>XXw>XXw>O1eeeeeeee",
"eeeeeeeeeeeeeeeeeeeeeeeeeeeeee",
"eeeeeeeeeeeeeeeeeeeeeeeeeeeeee",
"eeeeeeeeeeeeeeeeeeeeeeeeeeeeee",
"eeeeeeeeeeeeeeeeeeeeeeeeeeeeee",
"eeeeeeeeeeeeeeeeeeeeeeeeeeeeee",
"eeeeeeeeeeeeeeeeeeeeeeeeeeeeee",
"eeeeeeeeeeeeeeeeeeeeeeeeeeeeee",
"eeeeeeeeeeeeeeeeeeeeeeeeeeeeee"
};
