/* XPM */
static char *_d263ea92cae4f7ad3bad589e06f8f5d74PTWaPfaXsgwXHD[] = {
/* columns rows colors chars-per-pixel */
"30 30 163 2 ",
"   c #382B36",
".  c #403545",
"X  c #5A3E44",
"o  c #553D48",
"O  c #613B46",
"+  c #5B4046",
"@  c #6B4246",
"#  c #6D5354",
"$  c #584861",
"%  c #685F71",
"&  c #745E7F",
"*  c #6B647E",
"=  c #726377",
"-  c #71657A",
";  c #675981",
":  c #6D6682",
">  c #6F6882",
",  c #706281",
"<  c #6C679A",
"1  c #766799",
"2  c #7A669B",
"3  c #736A9B",
"4  c #7C699B",
"5  c #5E7ABD",
"6  c #6F6CAF",
"7  c #7766A0",
"8  c #7B73A0",
"9  c #6F6EB6",
"0  c #6C6CBC",
"q  c #736EB1",
"w  c #7B6EB4",
"e  c #7965BC",
"r  c #726ABC",
"t  c #7869BA",
"y  c #6D72B3",
"u  c #6473BC",
"i  c #6B74BD",
"p  c #6679BB",
"a  c #6D7DBA",
"s  c #7374B5",
"d  c #7B75B6",
"f  c #7E7DB4",
"g  c #7475BC",
"h  c #7A75BC",
"j  c #717DBB",
"k  c #7D78B9",
"l  c #746DC0",
"z  c #6D75C3",
"x  c #6779C4",
"c  c #697CC2",
"v  c #6A7BC9",
"b  c #7573C2",
"n  c #7877C0",
"m  c #777FC0",
"M  c #7A7DC2",
"N  c #7B7DCA",
"B  c #6F84BD",
"V  c #7480BD",
"C  c #708ABD",
"Z  c #6B83C6",
"A  c #6C89C5",
"S  c #6C83CB",
"D  c #6B8ACE",
"F  c #7386C4",
"G  c #7289C5",
"H  c #798AC5",
"J  c #7585CB",
"K  c #7984CB",
"L  c #6B91CF",
"P  c #6C80D2",
"I  c #658DD2",
"U  c #6B8BD3",
"Y  c #748BD1",
"T  c #798CD2",
"R  c #778BD8",
"E  c #6790D7",
"W  c #6993D2",
"Q  c #6699D5",
"!  c #6999D6",
"~  c #6C94D9",
"^  c #679DDB",
"/  c #6B9EDB",
"(  c #7E9AD4",
")  c #7196D9",
"_  c #709FDC",
"`  c #7D98DF",
"'  c #6FA3D5",
"]  c #65A3DC",
"[  c #6BA3DD",
"{  c #66ACDD",
"}  c #6AADDE",
"|  c #7DA3D7",
" . c #64B2DE",
".. c #6BB2DE",
"X. c #72B5DD",
"o. c #7DB5DD",
"O. c #73B8DE",
"+. c #6EA7E1",
"@. c #67ADE2",
"#. c #6AAEE4",
"$. c #6BAEE9",
"%. c #74A5E3",
"&. c #72ACE4",
"*. c #77ACEC",
"=. c #66B2E4",
"-. c #6AB0E4",
";. c #66B8E7",
":. c #6BB8E5",
">. c #66B4E8",
",. c #6CB4EA",
"<. c #69BAE8",
"1. c #72B5E4",
"2. c #75BBE6",
"3. c #7ABEE6",
"4. c #72B3EB",
"5. c #79B0ED",
"6. c #75BEEA",
"7. c #78BDE8",
"8. c #7BC1E5",
"9. c #76C5E9",
"0. c #7BC0E9",
"q. c #7EC6F3",
"w. c #77CCF2",
"e. c #7DC8F1",
"r. c #98A3B7",
"t. c #91A5CA",
"y. c #8CA5D7",
"u. c #85ADDB",
"i. c #83ADDD",
"p. c #82AEDE",
"a. c #86ACDF",
"s. c #81B0DD",
"d. c #81B1DA",
"f. c #8BB0DF",
"g. c #92B0D4",
"h. c #A2B2D1",
"j. c #8AAFE0",
"k. c #8CADE2",
"l. c #91AEEA",
"z. c #8CB0E2",
"x. c #80C6EB",
"c. c #80C5ED",
"v. c #81C6EE",
"b. c #82C7EB",
"n. c #82C9ED",
"m. c #88CEED",
"M. c #83C7F3",
"N. c #88C7F1",
"B. c #84CBF3",
"V. c #86CCF4",
"C. c #84CBF1",
"Z. c #88CDF0",
"A. c #8CCCF5",
"S. c #8ACFF5",
"D. c #89D3F7",
"F. c #8AD2F7",
"G. c #8CD2F4",
"H. c #8CD1F8",
"J. c #99D1F7",
"K. c #93D7F8",
"L. c #93DAF8",
"P. c #93DEF8",
"I. c #95DBFD",
/* pixels */
"# g.o.y.T G z.p.s.d.k.z i k.u.a.| ( i ( j.a.p.p.f.A l.C t.@ ",
"h.u e 9 v z y b r t r z ` u 5 Y 0 l z i u u J c 0 z u p G r.",
"6 P E A 4.&.p r S U D ! ,.,.,.4.L D W 4.,.,.,.,.,.,.:.%.v < ",
"a 4.-.D.9.V.J.' } <.;.-...-.#.@. .-.-.#.#.#.#.#.} } =.,.~ 7 ",
"j -.@.-.-.#...-.#.#.#.#.#.@.B.8.L.K.A.#.#.#.#.-.P.S.w.' i 3 ",
"q / >.&.=.-.#.=.=.#.-.=.,.#.#.#.} { @.=.=.#.=.#.{ %.#.[ z 4 ",
"y / =.#.=.#.#.=.#.=.#.#.#.@.} #.#.#.#.#.-.-.#.-.=.#.=.&.U 1 ",
"V ,.#.=.#.$.#.-.#.=.#.4.1.c.x.c.-.#.=.=.=.=.=.=.#.=.=.#.4.3 ",
"j ,.#.-.#.=.#.=.=.#.#.1.1.3.8.0.-.#.=.=.=.=.=.=.#.=.-.=.,.3 ",
"y / =.#.@.{ { #.#.=.#.=.#.#.} } #.#.-.#.=.-.-.=.=.#.=.#.%.3 ",
"q _ =.&.6.D.2.M.#.#.-.=.#.#.#.#.#.#.-.-.-.#.#.#.=.&.=.,.U 2 ",
"q / =.#.-.X...1.#.#.=.-.-.-.-.-.-.-.#.-.#.#.-.X.-.#.=.>.U 2 ",
"s +.=.#.@.#.#.#.$.#.-.#.#.#.#.#.-.-.#.=.#.#.2.G.6.M.} -.D 2 ",
"s +.=.#.=.#.#.#.#.=.-.#.#.#.#.$.#.#.$.-.-.#.#.} @.@.#.,.I 3 ",
"q / ,.#.=.-.-.-.-.-.-.#.=.6.-.@.{ { #.-.-.#.$.$.#.,.$.=.*.3 ",
"q / =.#.=.=.-.-.-.-.#.#.} n.X.S.m.G.c.@.=.#...} -.=.#.=.4.3 ",
"y ] #.-.#.-.=.=.=.#.-.#.#.#.} 2.1.1.1.#.#.-.#.=.#.#.-.-.U 2 ",
"m 4.#.-.=.-.=.=.=.=.=.=.#.#.#.#.#.#.#.#.=.=.=.=.=.#.#.-.U 2 ",
"y ] =.-.#.-.=.=.=.=.=.=.#.-.#.#.#.#.#.-.=.=.=.#.=.=.#.-.I 1 ",
"j ,.#.-.#.-.=.=.=.=.=.=.#.#.-.-.-.-.-.=.=.=.=.#.=.=.+.=.5.3 ",
"j ,.#.=.#.#.#.#.-.=.=.-.=.#.=.=.=.=.=.-.=.=.=.-.#.=.&.=.,.3 ",
"q ] :.X.X.1.} #.#.=.-.#.#...{ @.@.$.$.#.-.=.=.-.#.=.-.=.*.3 ",
"q _ q.n.H.S.} #.-.-.#.#.#.2.n.x.x.O.0.#.#.#.=.-.#.$.#.;.I 1 ",
"s Z #. .} { #.#.-.#.-.#.#.:.0.0.0.1.7.#.#.#.#.#.#.#.#.-.U 2 ",
"s u *.-.#.#.#.#.#.#.-.-.=.#.#.#.#.#.$.=.=.#.=.#.3...3.3.D 2 ",
"q W $.=.=.{ { { { #.#.-.-.-.#.#.#.-.#.-.=.=.=.=.B.:.N.e.D 2 ",
"s / ,.+.{ H.I.D.C.:.,.-.#.#.=.-.-.:.=.#.#.-.-.=.} =.-.-.U 1 ",
"d x R u S -.=.] ! [ [ Q 4.:.4.Q ! ! ^ ,.,.] %.] ~ ) / %.i 8 ",
"; f s k g B F s w h N b J Y K n h h M H F g k h w w y m k $ ",
". > : * , & , , > % X O X X X X X + X o = - = = : : * * *   "
};
