/* XPM */
static char *_2e055f6ee164fc4c74d24073496d850LV8UOVCEx41tbuCP[] = {
/* columns rows colors chars-per-pixel */
"30 30 222 2 ",
"   c #1F1F1D",
".  c #3F170D",
"X  c #320F13",
"o  c #340D1F",
"O  c #2E1711",
"+  c #2F1812",
"@  c #2E171D",
"#  c #2B1B1B",
"$  c #2D191A",
"%  c #2B1F1F",
"&  c #2C1C1C",
"*  c #351113",
"=  c #331017",
"-  c #3B1017",
";  c #3F1614",
":  c #321318",
">  c #341118",
",  c #37191B",
"<  c #341C1C",
"1  c #3B1D1F",
"2  c #1E1323",
"3  c #1F1424",
"4  c #2D1E23",
"5  c #281B25",
"6  c #2A1D27",
"7  c #2E1F24",
"8  c #381F23",
"9  c #2A2220",
"0  c #2D2121",
"q  c #2D2620",
"w  c #2F2822",
"e  c #392024",
"r  c #382B36",
"t  c #410706",
"y  c #420807",
"u  c #4D060A",
"i  c #490F0E",
"p  c #440B14",
"a  c #460D16",
"s  c #520D12",
"d  c #540F14",
"f  c #401715",
"g  c #421819",
"h  c #441819",
"j  c #402025",
"k  c #7A2221",
"l  c #702E2F",
"z  c #732C30",
"x  c #742D31",
"c  c #403545",
"v  c #5A3E44",
"b  c #553D48",
"n  c #613B46",
"m  c #5B4046",
"M  c #6B4246",
"N  c #69494C",
"B  c #774548",
"V  c #78474A",
"C  c #7F474A",
"Z  c #7F464C",
"A  c #704B52",
"S  c #6E5251",
"D  c #6D5354",
"F  c #584861",
"G  c #7F5966",
"H  c #685F71",
"J  c #745E7F",
"K  c #6B647E",
"L  c #726377",
"P  c #71657A",
"I  c #991F10",
"U  c #922A21",
"Y  c #963626",
"T  c #97342F",
"R  c #99332F",
"E  c #843634",
"W  c #B23D36",
"Q  c #84494B",
"!  c #8D4F52",
"~  c #834D5B",
"^  c #865157",
"/  c #8E5053",
"(  c #89545A",
")  c #85585B",
"_  c #A45247",
"`  c #A45149",
"'  c #9F7E77",
"]  c #A2817A",
"[  c #675981",
"{  c #6D6682",
"}  c #6F6882",
"|  c #706281",
" . c #6C679A",
".. c #766799",
"X. c #7A669B",
"o. c #736A9B",
"O. c #7C699B",
"+. c #5E7ABD",
"@. c #6F6CAF",
"#. c #7766A0",
"$. c #7B73A0",
"%. c #6F6EB6",
"&. c #6C6CBC",
"*. c #736EB1",
"=. c #7B6EB4",
"-. c #7965BC",
";. c #726ABC",
":. c #7869BA",
">. c #6D72B3",
",. c #6473BC",
"<. c #6B74BD",
"1. c #6679BB",
"2. c #6D7DBA",
"3. c #7374B5",
"4. c #7B75B6",
"5. c #7E7DB4",
"6. c #7475BC",
"7. c #7A75BC",
"8. c #717DBB",
"9. c #7D78B9",
"0. c #746DC0",
"q. c #6D75C3",
"w. c #6779C4",
"e. c #697CC2",
"r. c #6A7BC9",
"t. c #7573C2",
"y. c #7877C0",
"u. c #777FC0",
"i. c #7A7DC2",
"p. c #7B7DCA",
"a. c #6F84BD",
"s. c #7480BD",
"d. c #708ABD",
"f. c #6B83C6",
"g. c #6C89C5",
"h. c #6C83CB",
"j. c #6B8ACE",
"k. c #7386C4",
"l. c #7289C5",
"z. c #798AC5",
"x. c #7585CB",
"c. c #7984CB",
"v. c #6B91CF",
"b. c #6C80D2",
"n. c #658DD2",
"m. c #6B8BD3",
"M. c #748BD1",
"N. c #798CD2",
"B. c #778BD8",
"V. c #6790D7",
"C. c #6993D2",
"Z. c #6699D5",
"A. c #6999D6",
"S. c #6C94D9",
"D. c #679DDB",
"F. c #6B9EDB",
"G. c #7E9AD4",
"H. c #7196D9",
"J. c #709FDC",
"K. c #7D98DF",
"L. c #6FA3D5",
"P. c #65A3DC",
"I. c #6BA3DD",
"U. c #66ACDD",
"Y. c #6AADDE",
"T. c #7DA3D7",
"R. c #64B2DE",
"E. c #6BB2DE",
"W. c #72B5DD",
"Q. c #7DB5DD",
"!. c #6EA7E1",
"~. c #67ADE2",
"^. c #6AAEE4",
"/. c #6BAEE9",
"(. c #74A5E3",
"). c #72ACE4",
"_. c #77ACEC",
"`. c #66B2E4",
"'. c #6AB0E4",
"]. c #66B8E7",
"[. c #6BB8E5",
"{. c #66B4E8",
"}. c #6CB4EA",
"|. c #69BAE8",
" X c #72B5E4",
".X c #7ABEE6",
"XX c #72B3EB",
"oX c #79B0ED",
"OX c #7BC1E5",
"+X c #76C5E9",
"@X c #7BC0E9",
"#X c #7EC6F3",
"$X c #77CCF2",
"%X c #7DC8F1",
"&X c #98A3B7",
"*X c #91A5CA",
"=X c #8CA5D7",
"-X c #85ADDB",
";X c #82AEDE",
":X c #86ACDF",
">X c #81B1DA",
",X c #81B0DD",
"<X c #8BB0DF",
"1X c #92B0D4",
"2X c #A2B2D1",
"3X c #8AAFE0",
"4X c #8CADE2",
"5X c #91AEEA",
"6X c #8CB0E2",
"7X c #80C6EB",
"8X c #80C5ED",
"9X c #82C9ED",
"0X c #88C7F1",
"qX c #84CBF3",
"wX c #86CCF4",
"eX c #8ACFF5",
"rX c #8CCCF5",
"tX c #89D3F7",
"yX c #8CD1F8",
"uX c #93D7F8",
"iX c #93DAF8",
"pX c #95DBFD",
/* pixels */
"D 1XQ.=XN.l.6X;X,X>X4Xq.<.4X-X:XT.G.<.G.3X:X;X;X<Xg.5Xd.*XM ",
"2X,.-.%.r.q.>.t.;.:.;.q.K.,.+.M.&.0.q.<.,.,.x.e.&.q.,.1.l.&X",
"@.b.V.g.XX).3 ;.h.m.j.A.}.}.}.XXv.j.C.XX}.}.2 2 }.}.[.(.r. .",
"2.XX'.tX+XwX3 L.Y.|.].'.E.'.^.~.R.'.'.^.^.^.2 2 Y.Y.`.}.S.#.",
"8.'.~.'.o o G q q ^.^.^.^.~.qXOXiXuXrX^.^.w G G o o $XL.<.o.",
"*.F.{.).o o G q q ^.'.`.}.^.^.^.Y.U.~.`.`.w G G o o ^.I.q.O.",
">.F.5 5 ~ ~ a O O `.^.^.^.~.Y.^.^.^.^.^.'.+ p p ~ ~ 6 6 m...",
"s.}.4 4 Z Z d B B j j XX X8X7X8X'.^.`.j j V s s C C 7 7 XXo.",
"8.}.4 4 Z Z d B B j j  X X.XOX@X'.^.`.j j V s s C C 7 7 }.o.",
">.F.# # Q Q x ^ ^ = = `.^.^.Y.Y.^.^.'.> > ( z z Q Q & & (.o.",
"*.J.# # Q Q x ^ ^ = = `.^.^.^.^.^.^.'.> > ( z z Q Q & & m.X.",
"*.F.`.^.y y / = = ^.`.0 0 '.'.'.'.% % '.^.: ! ! t t `.{.m.X.",
"3.!.`.^.y y / = = ^.'.0 0 ^.^.^.'.% % `.^.: ! ! t t Y.'.j.X.",
"3.!.`.^.f f V 8 8 $ $ ] ] . . . . ' ' $ $ e B B ; ; ^.}.n.o.",
"*.F.}.^.f f V 8 8 $ $ ] ] . . . . ' ' $ $ e B B ; ; /.`._.o.",
"*.F.`.^.`.`.< A A C C ` ` Y Y Y Y _ _ Z Z A < < '.`.^.`.XXo.",
">.P.^.'.^.'.< A A C C ` ` Y Y Y Y _ _ Z Z A < < ^.^.'.'.m.X.",
"u.XX^.'.`.'.`.- - u u U U I I I I U U u u - `.`.`.^.^.'.m.X.",
">.P.`.'.^.'.`.- - u u U U I I I I U U u u - `.^.`.`.^.'.n...",
"8.}.^.'.^.'.X ) ) l l R R W W W W T T l l ) X X `.`.!.`.oXo.",
"8.}.^.`.^.^.X ) ) l l R R W W W W T T l l ) X X ^.`.).`.}.o.",
"*.P.[.W.@ @ N h h i i E E k k k k E E i i g N N @ @ '.`._.o.",
"*.J.#X9XyXeXq - - V V * * 1 1 1 1 * * V V - q q ^./.^.].n...",
"3.f.^.R.Y.U.q - - V V * * 1 1 1 1 * * V V - q q ^.^.^.'.m.X.",
"3.,._.'.^.^.  S S , , '.`.^.^.^.^.^./., , S     .XE..X.Xj.X.",
"*.C./.`.`.U.  S S , , '.'.'.^.^.^.'.^., , S     qX[.0X%Xj.X.",
"3.F.}.!.U.yXpX9 9 [.}.'.^.^.`.'.'.[.`.^.^.9 '.`.Y.`.'.'.m...",
"4.w.B.,.h.'.`.9 9 I.I.Z.XX[.XXZ.A.A.D.}.}.9 (.P.S.H.F.(.<.$.",
"[ 5.3.9.6.a.k.3.=.7.p.t.x.M.c.y.7.7.i.z.k.6.9.7.=.=.>.u.9.F ",
"c } { K | J | | } H v n v v v v v m v b L P L L { { K K K r "
};
