/* XPM */
static char *_555c442d9aa4e2cf86530a5e18569ffj1LMOGkqjEv0YHrk[] = {
/* columns rows colors chars-per-pixel */
"30 30 178 2 ",
"   c #010000",
".  c #000100",
"X  c #010100",
"o  c #000300",
"O  c #010300",
"+  c #000201",
"@  c #020200",
"#  c #000002",
"$  c #000102",
"%  c #000203",
"&  c #040000",
"*  c #070000",
"=  c #040003",
"-  c #000400",
";  c #000500",
":  c #000600",
">  c #000700",
",  c #000402",
"<  c #000004",
"1  c #000005",
"2  c #010005",
"3  c #020305",
"4  c #010007",
"5  c #030007",
"6  c #000306",
"7  c #030207",
"8  c #040007",
"9  c #060107",
"0  c #050306",
"q  c #000407",
"w  c #080500",
"e  c #0A0700",
"r  c #0A0007",
"t  c #0C0304",
"y  c #080705",
"u  c #0B0704",
"i  c #0E0506",
"p  c #040903",
"a  c #060B05",
"s  c #0B0800",
"d  c #090806",
"f  c #0C0805",
"g  c #0D0805",
"h  c #06000A",
"j  c #05060B",
"k  c #07010D",
"l  c #00040E",
"z  c #090008",
"x  c #0B0008",
"c  c #09000A",
"v  c #0B0D0C",
"b  c #11000B",
"n  c #11050F",
"m  c #090311",
"M  c #0D0212",
"N  c #110511",
"B  c #1F1F1D",
"V  c #3F170D",
"C  c #320F13",
"Z  c #330F13",
"A  c #340D1F",
"S  c #2E1711",
"D  c #2F1812",
"F  c #2E171D",
"G  c #2B1B1B",
"H  c #2D191A",
"J  c #2B1F1F",
"K  c #2C1C1C",
"L  c #351113",
"P  c #301116",
"I  c #331017",
"U  c #3A1314",
"Y  c #3B1314",
"T  c #3B1017",
"R  c #3F1614",
"E  c #321318",
"W  c #341118",
"Q  c #37191B",
"!  c #341C1C",
"~  c #3B1D1D",
"^  c #3B1D1F",
"/  c #1E1323",
"(  c #1F1424",
")  c #2D1E23",
"_  c #281B25",
"`  c #2A1D27",
"'  c #2E1F24",
"]  c #381F23",
"[  c #2A2220",
"{  c #2D2121",
"}  c #2E2520",
"|  c #2D2620",
" . c #2F2822",
".. c #392024",
"X. c #410706",
"o. c #420807",
"O. c #4D060A",
"+. c #4E060A",
"@. c #490F0E",
"#. c #440B14",
"$. c #460D16",
"%. c #520D12",
"&. c #540F14",
"*. c #401715",
"=. c #421819",
"-. c #441819",
";. c #402025",
":. c #7A2220",
">. c #7A2221",
",. c #702E2F",
"<. c #732C30",
"1. c #742D31",
"2. c #69494C",
"3. c #764548",
"4. c #774548",
"5. c #784649",
"6. c #78474A",
"7. c #7E454B",
"8. c #7F474A",
"9. c #7F464C",
"0. c #704B52",
"q. c #6E5251",
"w. c #7E5865",
"e. c #7F5966",
"r. c #991F10",
"t. c #922A21",
"y. c #963626",
"u. c #97342F",
"i. c #99332F",
"p. c #843634",
"a. c #B23D36",
"s. c #84494B",
"d. c #8D4F52",
"f. c #834D5B",
"g. c #865157",
"h. c #8E5053",
"j. c #89545A",
"k. c #85585B",
"l. c #A45247",
"z. c #A45149",
"x. c #9F7E77",
"c. c #A2817A",
"v. c #EDF0E7",
"b. c #EEF1E8",
"n. c #F7EAF4",
"m. c #F9ECF6",
"M. c #FEEEF8",
"N. c #FDF3F1",
"B. c #FBF6F2",
"V. c #FEF4F3",
"C. c #F3F8F2",
"Z. c #FFFAF2",
"A. c #FFFBF3",
"S. c #FFFCF2",
"D. c #FFFDF3",
"F. c #FFFEF6",
"G. c #F1F6FA",
"H. c #FFF6F8",
"J. c #FFF7F9",
"K. c #FEF4FC",
"L. c #FFF6FD",
"P. c #FFF7FF",
"I. c #F3F8FC",
"U. c #F9F9FB",
"Y. c #FFF8F9",
"T. c #FFF9F9",
"R. c #FBFDFA",
"E. c #FFFCFA",
"W. c #FAF8FD",
"Q. c #FDF8FE",
"!. c #FFF8FF",
"~. c #FFF9FF",
"^. c #FFFAFF",
"/. c #FFFBFF",
"(. c #F8FFFF",
"). c #F9FFFF",
"_. c #FBFEFF",
"`. c #FBFFFF",
/* pixels */
"e e X X l l ).6 6 = = a a - - - - p p = = 6 ).).l l X X s s ",
"e e X X l l ).6 6 = = a a - - - - p p = = 6 ).).l l X X s s ",
"X X e e Q.Q.( Q.Q.y y X X X X X X X X d d Q./ / Q.Q.g g X X ",
"X X e e Q.Q.( Q.Q.y y X X X X X X X X d d Q./ / Q.Q.g g X X ",
"6 6 K.K.A A e.| | v.v.g g t t i i y y b.b. .e.e.A A K.K.q q ",
"6 6 K.K.A A e.| | v.v.g g t t i i y y b.b. .e.e.A A K.K.q q ",
").)._ _ f.f.$.S S F.F.= = r r x x = = F.F.D #.#.f.f.` ` ).).",
"I.I.) ) 9.9.&.4.4.;.;.m.m.m m m m n.n.;.;.6.%.%.8.8.' ' G.G.",
"I.I.) ) 9.9.&.4.4.;.;.m.m.m m m m n.n.;.;.6.%.%.8.8.' ' G.G.",
").).G G s.s.1.g.g.I I Q.Q.h h k k K.K.W W j.<.<.s.s.K K ).).",
").).G G s.s.1.g.g.I I Q.Q.h h k k K.K.W W j.<.<.s.s.K K ).).",
"- - Z.Z.o.o.h.I I H.H.{ { N.N.V.V.J J H.H.E d.d.X.X.Z.Z.- - ",
"- - Z.Z.o.o.h.I I H.H.{ { N.N.V.V.J J H.H.E d.d.X.X.Z.Z.- - ",
"- - D.D.*.*.6.] ] H H c.c.V V V V x.x.H H ..4.4.R R D.D.- - ",
"> > D.D.*.*.6.] ] H H c.c.V V V V x.x.H H ..4.4.R R D.D.- - ",
"X X X X E.E.! 0.0.8.8.z.z.y.y.y.y.l.l.9.9.0.! ! E.E.X X X X ",
"X X X X E.E.! 0.0.8.8.z.z.y.y.y.y.l.l.9.9.0.! ! E.E.X X X X ",
"6 6 9 h = = T.T T O.O.t.t.r.r.r.r.t.t.O.O.T T.T.= = 9 9 6 6 ",
"6 6 9 9 = = T.T T O.O.t.t.r.r.r.r.t.t.O.O.T T.T.= = 9 9 6 6 ",
"x x b b K.K.C k.k.,.,.i.i.a.a.a.a.u.u.,.,.k.C C K.K.b b x r ",
"x x b b K.K.C k.k.,.,.i.i.a.a.a.a.u.u.,.,.k.C C K.K.b b x x ",
"N N M.M.F F 2.-.-.@.@.p.p.>.>.>.>.p.p.@.@.=.2.2.F F M.M.n n ",
"X X v v C.C.| T T 6.6.L L ^ ^ ^ ^ L L 6.6.T | | C.C.v v X X ",
"X X v v C.C.| T T 6.6.L L ^ ^ ^ ^ L L 6.6.T | | C.C.v v X X ",
"- - X X ).).B q.q.Q Q Q.Q.U.U.W.W.Q.Q.Q Q q.B B ).).X X X X ",
"- - X X ).).B q.q.Q Q Q.Q.U.U.W.W.Q.Q.Q Q q.B B ).).X X - - ",
"6 6 6 7 6 6 Q.[ [ B.B.9 9 6 6 6 6 9 9 B.B.[ Q.Q.6 6 6 6 6 6 ",
"6 6 6 7 6 6 Q.[ [ B.B.9 9 6 6 6 6 9 9 B.B.[ Q.Q.6 6 6 6 6 6 ",
"6 6 6 6 M M 9 R.R.- - X X j j j j X X - - R.9 9 M M 6 6 6 6 ",
"6 6 6 6 M M 9 E.R.- - X X j j j j X X - - R.9 9 M M 6 6 6 6 "
};
