/* XPM */
static char *_877cad39c694f84f41670cfff6f0187lbtbyOhf2PjlbJCn[] = {
/* columns rows colors chars-per-pixel */
"30 30 102 2 ",
"   c #222025",
".  c #282224",
"X  c #3A2B28",
"o  c #3D292A",
"O  c #3C2A2A",
"+  c #3A292F",
"@  c #3A2931",
"#  c #3B2A32",
"$  c #3C2D32",
"%  c #7A4C35",
"&  c #774A4F",
"*  c #714650",
"=  c #734C51",
"-  c #764B5F",
";  c #7D565B",
":  c #7B565E",
">  c #81574B",
",  c #915D50",
"<  c #925E50",
"1  c #945F59",
"2  c #A06C54",
"3  c #A06D5C",
"4  c #A16E5D",
"5  c #B97F5A",
"6  c #BA7F5F",
"7  c #B78152",
"8  c #B68253",
"9  c #B68155",
"0  c #B78057",
"q  c #B78256",
"w  c #B98053",
"e  c #B98055",
"r  c #B88256",
"t  c #B88454",
"y  c #B78258",
"u  c #B6805C",
"i  c #B7815F",
"p  c #B88158",
"a  c #B8815A",
"s  c #B98458",
"d  c #B9845A",
"f  c #B9835D",
"g  c #BA825D",
"h  c #BA825F",
"j  c #BC825C",
"k  c #BC8161",
"l  c #B88364",
"z  c #D29D4D",
"x  c #CF9C5D",
"c  c #D79F52",
"v  c #D59F55",
"b  c #D59F57",
"n  c #D79E57",
"m  c #D79E59",
"M  c #D79E5B",
"N  c #D19E5D",
"B  c #D19E5F",
"V  c #D4A145",
"C  c #D3A34E",
"Z  c #D5A14D",
"A  c #D5A14E",
"S  c #D7A04E",
"D  c #D5A24F",
"F  c #D6A24F",
"G  c #D8A14E",
"H  c #D5A050",
"J  c #D7A050",
"K  c #D5A251",
"L  c #D5A052",
"P  c #D6A153",
"I  c #D5A253",
"U  c #D5A054",
"Y  c #D5A155",
"T  c #D6A155",
"R  c #D6A256",
"E  c #D8A056",
"W  c #D6A058",
"Q  c #D7A659",
"!  c #D9A559",
"~  c #DAA559",
"^  c #D9A55A",
"/  c #DAA65A",
"(  c #DCA759",
")  c #DDA85A",
"_  c #DEA95B",
"`  c #DDA95D",
"'  c #CB9660",
"]  c #D29F60",
"[  c #D39F63",
"{  c #D2A061",
"}  c #D3A061",
"|  c #E5B560",
" . c #E5B561",
".. c #E7B560",
"X. c #E7B461",
"o. c #E4B661",
"O. c #E5B467",
"+. c #E7B667",
"@. c #E8B461",
"#. c #ECBE68",
"$. c #E6B477",
"%. c #EBBB7D",
/* pixels */
"' P E G P U U U U U U U U U U U U U U U U U U U U U U U U } ",
"[ z n S n U U U U U U U U U U U U U U U U U U U U U U U U U ",
"N S m c n U U U U U U U U U U U U U U U U U U U U U U U U / ",
"N S m P n U U U U U U U U U U U U U U U U U U U U U U U U / ",
"N P m P P U U U U U U U U U U U U U U U U U U U U U U U U Q ",
"N S m P n U U U U U U U U U U U U U U U U U U U U U U U U / ",
"N S m P n U U P U U U U U U U U U U U U U U U U U U U U U / ",
"N S m P n U P P U U U U U U U U U U U U U U U U U U U U U / ",
"N S m P n U U U U U U U U U U U U U U U U U U U U U U U U / ",
"N S m P n U U U U U U U U U U U U U U U U U U U U U U U U / ",
"N S m P n U U U U U U U U U U U U U U U U U U U U U U U U ( ",
"N S m P n U U U U U U U U U U U U U U U U U U U U U U U U _ ",
"N S m P n U U U U U U U U U U U U U U U U U U U U U U U U _ ",
"N S m P n U U U U U U U U U U U U U U U U U U U U U U U U _ ",
"N S m P n U U U U U U U U U U U U U U U U U U U U U U U U ` ",
"N S m P n U U U U U U U U U U U U U U U U U U U U U U U U ` ",
"N S m P n U U U U U U U U U U U U U U U U U U U U U U U U ` ",
"N S m P n U U U U U U U U U U U U U U U U U U U U U U U U ` ",
"N S m P n U U U U U U U U U U U U U U U U U U U U U U U U ` ",
"N S m P n U U P U U U U U U U U U U U U U U U U U U U U U ` ",
"N S m P n U U U U U U U U U U U U U U U U U U U U U U U U ` ",
"x S m P n U U U U U U U U U U U U U U U U U U U U U U U U / ",
"} S m P n U U U U U U U U U U U U U U U U U U U U U U U U / ",
"[ S m P n U U U U U U U U U U U U U U U U U U U U P U U P / ",
"%.V S C S P P P P P P P P P P P P P P P P P P P U P U W P #.",
"% $.O.o.@.o.o.o.o.o.o.o.o.o.o.o.o.o.o.o.o.o.o.o.o.o.o.o.O.> ",
"- < y i 6 p p p p p p p e p p p p p p p p p p p 0 p e 0 2 * ",
"= < 7 i e 0 0 0 0 0 0 0 0 0 0 0 0 0 0 0 0 0 0 0 7 5 w t 4 & ",
"; 1 h l s h h h h h h h h h h h h h h h h h h h s k j s 4 : ",
"  $ O X O @ + @ @ + @ + + @ + + @ + + @ + @ @ + @ @ @ @ @ . "
};
